<?xml version="1.0" encoding="UTF-8"?>
<svg width="220px" height="220px" viewBox="0 0 220 220" version="1.1" xmlns="http://www.w3.org/2000/svg" xmlns:xlink="http://www.w3.org/1999/xlink">
    <!-- Generator: Sketch 51.1 (57501) - http://www.bohemiancoding.com/sketch -->
    <title>app-cover</title>
    <desc>Created with Sketch.</desc>
    <defs>
        <filter x="-19.4%" y="-13.9%" width="138.9%" height="138.9%" filterUnits="objectBoundingBox" id="filter-1">
            <feOffset dx="0" dy="10" in="SourceAlpha" result="shadowOffsetOuter1"></feOffset>
            <feGaussianBlur stdDeviation="10" in="shadowOffsetOuter1" result="shadowBlurOuter1"></feGaussianBlur>
            <feColorMatrix values="0 0 0 0 0   0 0 0 0 0   0 0 0 0 0  0 0 0 0.22 0" type="matrix" in="shadowBlurOuter1" result="shadowMatrixOuter1"></feColorMatrix>
            <feMerge>
                <feMergeNode in="shadowMatrixOuter1"></feMergeNode>
                <feMergeNode in="SourceGraphic"></feMergeNode>
            </feMerge>
        </filter>
        <circle id="path-2" cx="90" cy="90" r="90"></circle>
        <circle id="path-4" cx="90" cy="90" r="85"></circle>
        <filter x="-3.8%" y="-3.2%" width="107.6%" height="107.6%" filterUnits="objectBoundingBox" id="filter-6">
            <feOffset dx="0" dy="1" in="SourceAlpha" result="shadowOffsetOuter1"></feOffset>
            <feGaussianBlur stdDeviation="2" in="shadowOffsetOuter1" result="shadowBlurOuter1"></feGaussianBlur>
            <feColorMatrix values="0 0 0 0 0   0 0 0 0 0   0 0 0 0 0  0 0 0 0.3 0" type="matrix" in="shadowBlurOuter1"></feColorMatrix>
        </filter>
    </defs>
    <g id="Website" stroke="none" stroke-width="1" fill="none" fill-rule="evenodd">
        <g id="Desktop-HD" transform="translate(-850.000000, -195.000000)">
            <g id="Content" transform="translate(300.000000, 205.000000)">
                <g id="Cover" transform="translate(516.000000, 0.000000)">
                    <g id="app-cover" filter="url(#filter-1)" transform="translate(54.000000, 0.000000)">
                        <g id="Gauge">
                            <mask id="mask-3" fill="white">
                                <use xlink:href="#path-2"></use>
                            </mask>
                            <use id="Circle" fill="#F1ECE9" xlink:href="#path-2"></use>
                            <polygon id="Rectangle" fill="#ED474A" mask="url(#mask-3)" points="180 -2.7554553e-15 180 180 90 180 90 2.7554553e-15"></polygon>
                            <mask id="mask-5" fill="white">
                                <use xlink:href="#path-4"></use>
                            </mask>
                            <g id="Mask">
                                <use fill="black" fill-opacity="1" filter="url(#filter-6)" xlink:href="#path-4"></use>
                                <use fill="#ED474A" fill-rule="evenodd" xlink:href="#path-4"></use>
                            </g>
                        </g>
                        <path d="M64.2050781,100.302734 L61.9902344,100.302734 L61.9902344,86.0566406 C61.9902344,84.8717389 62.0266923,83.7506563 62.0996094,82.6933594 C61.9082022,82.8847666 61.6940116,83.0852854 61.4570312,83.2949219 C61.2200509,83.5045583 60.1354263,84.3932213 58.203125,85.9609375 L57,84.4023438 L62.2910156,80.3144531 L64.2050781,80.3144531 L64.2050781,100.302734 Z M84.899132,90.28125 C84.899132,93.7356944 84.3545411,96.3150956 83.2653429,98.0195312 C82.1761448,99.7239669 80.5104713,100.576172 78.2682726,100.576172 C76.1172202,100.576172 74.4811689,99.7034592 73.3600695,97.9580078 C72.2389701,96.2125564 71.6784289,93.6536627 71.6784289,90.28125 C71.6784289,86.7994618 72.2207412,84.2155032 73.305382,82.5292969 C74.3900228,80.8430905 76.0443032,80 78.2682726,80 C80.4375543,80 82.0849988,80.8795485 83.2106554,82.6386719 C84.3363121,84.3977953 84.899132,86.9452958 84.899132,90.28125 Z M73.9753039,90.28125 C73.9753039,93.1888166 74.3170973,95.3056574 75.0006945,96.6318359 C75.6842917,97.9580144 76.7734735,98.6210938 78.2682726,98.6210938 C79.781301,98.6210938 80.8773187,97.9489 81.5563586,96.6044922 C82.2353984,95.2600844 82.5749132,93.1523581 82.5749132,90.28125 C82.5749132,87.4101419 82.2353984,85.3069728 81.5563586,83.9716797 C80.8773187,82.6363866 79.781301,81.96875 78.2682726,81.96875 C76.7734735,81.96875 75.6842917,82.6272721 75.0006945,83.9443359 C74.3170973,85.2613998 73.9753039,87.3736834 73.9753039,90.28125 Z M88.2162328,98.8535156 C88.2162328,98.2428355 88.3552288,97.780275 88.6332249,97.4658203 C88.9112211,97.1513656 89.3099802,96.9941406 89.829514,96.9941406 C90.3581625,96.9941406 90.7705932,97.1513656 91.0668187,97.4658203 C91.3630441,97.780275 91.5111546,98.2428355 91.5111546,98.8535156 C91.5111546,99.4459665 91.3607655,99.9016911 91.0599828,100.220703 C90.7592,100.539715 90.3490478,100.699219 89.829514,100.699219 C89.3646679,100.699219 88.9795806,100.555665 88.6742406,100.268555 C88.3689005,99.9814439 88.2162328,99.5097689 88.2162328,98.8535156 Z M88.2162328,86.78125 C88.2162328,85.5507751 88.7539878,84.9355469 89.829514,84.9355469 C90.9506134,84.9355469 91.5111546,85.5507751 91.5111546,86.78125 C91.5111546,87.3737009 91.3607655,87.8294255 91.0599828,88.1484375 C90.7592,88.4674495 90.3490478,88.6269531 89.829514,88.6269531 C89.3646679,88.6269531 88.9795806,88.4833999 88.6742406,88.1962891 C88.3689005,87.9091783 88.2162328,87.4375033 88.2162328,86.78125 Z M108.048959,90.28125 C108.048959,93.7356944 107.504368,96.3150956 106.415169,98.0195312 C105.325971,99.7239669 103.660298,100.576172 101.418099,100.576172 C99.2670467,100.576172 97.6309954,99.7034592 96.509896,97.9580078 C95.3887966,96.2125564 94.8282554,93.6536627 94.8282554,90.28125 C94.8282554,86.7994618 95.3705677,84.2155032 96.4552085,82.5292969 C97.5398493,80.8430905 99.1941297,80 101.418099,80 C103.587381,80 105.234825,80.8795485 106.360482,82.6386719 C107.486139,84.3977953 108.048959,86.9452958 108.048959,90.28125 Z M97.1251304,90.28125 C97.1251304,93.1888166 97.4669238,95.3056574 98.150521,96.6318359 C98.8341182,97.9580144 99.9233,98.6210938 101.418099,98.6210938 C102.931128,98.6210938 104.027145,97.9489 104.706185,96.6044922 C105.385225,95.2600844 105.72474,93.1523581 105.72474,90.28125 C105.72474,87.4101419 105.385225,85.3069728 104.706185,83.9716797 C104.027145,82.6363866 102.931128,81.96875 101.418099,81.96875 C99.9233,81.96875 98.8341182,82.6272721 98.150521,83.9443359 C97.4669238,85.2613998 97.1251304,87.3736834 97.1251304,90.28125 Z M124.737153,95.7089844 L121.770356,95.7089844 L121.770356,100.302734 L119.596528,100.302734 L119.596528,95.7089844 L109.875825,95.7089844 L109.875825,93.7265625 L119.364106,80.2050781 L121.770356,80.2050781 L121.770356,93.6445312 L124.737153,93.6445312 L124.737153,95.7089844 Z M119.596528,93.6445312 L119.596528,87 C119.596528,85.6966081 119.6421,84.2246176 119.733247,82.5839844 L119.623872,82.5839844 C119.18637,83.4589888 118.776217,84.1835909 118.393403,84.7578125 L112.145356,93.6445312 L119.596528,93.6445312 Z" id="10:04" fill="#FFFFFF"></path>
                    </g>
                </g>
            </g>
        </g>
    </g>
</svg>